<svg xmlns="http://www.w3.org/2000/svg" viewBox="0 0 260 60">
  <defs>
    <linearGradient id="v4d1" x1="0%" y1="0%" x2="100%" y2="100%">
      <stop offset="0%" style="stop-color:#1e40af"/>
      <stop offset="100%" style="stop-color:#7f1d1d"/>
    </linearGradient>
  </defs>
  
  <!-- Solid powerful beam -->
  <g transform="translate(5, 5)">
    <!-- Solid I-beam shape -->
    <path d="M0,0 L50,0 L50,12 L30,12 L30,38 L50,38 L50,50 L0,50 L0,38 L20,38 L20,12 L0,12 Z" fill="url(#v4d1)"/>
    
    <!-- Tech overlay - circuit pattern -->
    <circle cx="25" cy="25" r="8" fill="none" stroke="#ffffff" stroke-width="2"/>
    <circle cx="25" cy="25" r="3" fill="#ffffff"/>
    
    <!-- Connection points -->
    <circle cx="10" cy="6" r="3" fill="#60a5fa"/>
    <circle cx="40" cy="6" r="3" fill="#60a5fa"/>
    <circle cx="10" cy="44" r="3" fill="#f87171"/>
    <circle cx="40" cy="44" r="3" fill="#f87171"/>
    
    <!-- Horizontal energy lines -->
    <line x1="13" y1="6" x2="37" y2="6" stroke="#60a5fa" stroke-width="1.5"/>
    <line x1="13" y1="44" x2="37" y2="44" stroke="#f87171" stroke-width="1.5"/>
  </g>
  
  <text x="64" y="43" font-family="'Arial Black', sans-serif" font-weight="900" font-size="38" fill="#ffffff">BRAVO</text>
  <text x="198" y="43" font-family="'Arial Black', sans-serif" font-weight="900" font-size="38" fill="#dc2626">AI</text>
</svg>