<svg xmlns="http://www.w3.org/2000/svg" viewBox="0 0 320 60">
  <defs>
    <linearGradient id="beam-grad" x1="0%" y1="0%" x2="0%" y2="100%">
      <stop offset="0%" style="stop-color:#3b82f6"/>
      <stop offset="50%" style="stop-color:#1e3a8a"/>
      <stop offset="100%" style="stop-color:#b91c1c"/>
    </linearGradient>
  </defs>
  
  <!-- I-beam icon with glowing core -->
  <g transform="translate(5, 5)">
    <rect x="0" y="0" width="48" height="10" rx="2" fill="#1e3a8a"/>
    <rect x="0" y="40" width="48" height="10" rx="2" fill="#991b1b"/>
    <rect x="19" y="10" width="10" height="30" fill="url(#beam-grad)"/>
    
    <!-- Glowing core -->
    <circle cx="24" cy="25" r="10" fill="none" stroke="url(#beam-grad)" stroke-width="2"/>
    <circle cx="24" cy="25" r="5" fill="#ffffff"/>
    
    <!-- Corner nodes -->
    <circle cx="5" cy="5" r="3" fill="#60a5fa"/>
    <circle cx="43" cy="5" r="3" fill="#60a5fa"/>
    <circle cx="5" cy="45" r="3" fill="#f87171"/>
    <circle cx="43" cy="45" r="3" fill="#f87171"/>
  </g>
  
  <!-- BRAVO - Space Grotesk style paths -->
  <g fill="#ffffff" transform="translate(68, 14)">
    <!-- B -->
    <path d="M0,0 h12 c6,0 10,3 10,9 c0,4 -2,6 -5,7 c4,1 6,4 6,8 c0,6 -4,10 -11,10 h-12 z M7,6 v7 h4 c3,0 5,-1 5,-3.5 c0,-2.5 -2,-3.5 -5,-3.5 z M7,18 v8 h5 c3,0 5,-1.5 5,-4 c0,-2.5 -2,-4 -5,-4 z"/>
    <!-- R -->
    <path d="M30,0 h12 c7,0 11,4 11,10 c0,5 -3,8 -7,9 l8,15 h-8 l-7,-14 h-2 v14 h-7 z M37,6 v9 h4 c3,0 5,-2 5,-4.5 c0,-2.5 -2,-4.5 -5,-4.5 z"/>
    <!-- A -->
    <path d="M67,0 h7 l12,34 h-7 l-2,-7 h-12 l-2,7 h-7 z M70.5,8 l-4,13 h8 z"/>
    <!-- V -->
    <path d="M90,0 h7 l8,23 l8,-23 h7 l-11,34 h-8 z"/>
    <!-- O -->
    <path d="M124,0 h14 c8,0 13,6 13,17 c0,11 -5,17 -13,17 h-14 c-8,0 -13,-6 -13,-17 c0,-11 5,-17 13,-17 z M125,6 c-4,0 -7,4 -7,11 c0,7 3,11 7,11 h12 c4,0 7,-4 7,-11 c0,-7 -3,-11 -7,-11 z"/>
  </g>
  
  <!-- AI - Red -->
  <g fill="#ef4444" transform="translate(240, 14)">
    <!-- A -->
    <path d="M0,0 h7 l12,34 h-7 l-2,-7 h-12 l-2,7 h-7 z M3.5,8 l-4,13 h8 z"/>
    <!-- I -->
    <path d="M26,0 h7 v34 h-7 z"/>
  </g>
</svg>
